<?xml version="1.0" encoding="UTF-8" standalone="no"?>
<!-- Created with Inkscape (http://www.inkscape.org/) -->

<svg
   width="659.3678mm"
   height="446.98828mm"
   viewBox="0 0 659.3678 446.98828"
   version="1.1"
   id="svg5"
   xml:space="preserve"
   sodipodi:docname="phoneAxes.svg"
   inkscape:version="1.2.1 (9c6d41e, 2022-07-14)"
   xmlns:inkscape="http://www.inkscape.org/namespaces/inkscape"
   xmlns:sodipodi="http://sodipodi.sourceforge.net/DTD/sodipodi-0.dtd"
   xmlns="http://www.w3.org/2000/svg"
   xmlns:svg="http://www.w3.org/2000/svg"><sodipodi:namedview
     id="namedview7"
     pagecolor="#ffffff"
     bordercolor="#000000"
     borderopacity="0.25"
     inkscape:showpageshadow="2"
     inkscape:pageopacity="0.0"
     inkscape:pagecheckerboard="0"
     inkscape:deskcolor="#d1d1d1"
     inkscape:document-units="mm"
     showgrid="false"
     inkscape:zoom="0.54108992"
     inkscape:cx="1005.3782"
     inkscape:cy="481.43569"
     inkscape:window-width="2560"
     inkscape:window-height="1387"
     inkscape:window-x="0"
     inkscape:window-y="25"
     inkscape:window-maximized="1"
     inkscape:current-layer="svg5" /><defs
     id="defs2"><marker
       style="overflow:visible"
       id="Arrow2"
       refX="0"
       refY="0"
       orient="auto-start-reverse"
       inkscape:stockid="Arrow2"
       markerWidth="7.6999998"
       markerHeight="5.5999999"
       viewBox="0 0 7.7 5.6"
       inkscape:isstock="true"
       inkscape:collect="always"
       preserveAspectRatio="xMidYMid"><path
         transform="scale(0.7)"
         d="M -2,-4 9,0 -2,4 c 2,-2.33 2,-5.66 0,-8 z"
         style="fill:context-stroke;fill-rule:evenodd;stroke:none"
         id="arrow2L" /></marker><marker
       style="overflow:visible"
       id="marker1808"
       refX="0"
       refY="0"
       orient="auto-start-reverse"
       inkscape:stockid="Arrow2"
       markerWidth="7.6999998"
       markerHeight="5.5999999"
       viewBox="0 0 7.7 5.6"
       inkscape:isstock="true"
       inkscape:collect="always"
       preserveAspectRatio="xMidYMid"><path
         transform="scale(0.7)"
         d="M -2,-4 9,0 -2,4 c 2,-2.33 2,-5.66 0,-8 z"
         style="fill:context-stroke;fill-rule:evenodd;stroke:none"
         id="path1806" /></marker></defs><g
     id="g563"
     transform="matrix(0.03527778,0,0,-0.03527778,-80.389198,603.2047)"><path
       d="m 20507.7,11806 c 3.4,195.8 -113.1,383.5 -354.8,523 l -4833.2,2790.5 c -523.4,302.2 -1433.7,264.2 -2034,-84.7 L 2774.41,8926.3 c -329.39,-191.4 -496.5,-436.3 -494.29,-668.4 0,1.9 -0.43,3.9 -0.43,5.8 -0.31,-108.4 -0.63,-216.7 -0.94,-325.1 -0.53,-193.3 116.34,-378 355.2,-515.9 L 7467.09,4632.3 C 7990.6,4330 8900.54,4367.8 9501.18,4717 l 10511.32,6108.4 c 326.4,189.8 493.9,432.3 494.5,662.7 0.3,108.3 0.7,216.7 1,325.1 0,-2.4 -0.3,-4.8 -0.3,-7.2"
       style="fill:#1b2e37;fill-opacity:1;fill-rule:nonzero;stroke:none"
       id="path565" /><path
       d="m 18375.9,12183.9 c 104.1,-60.1 272.3,-60.1 375.6,0 51.9,30.1 77.7,69.6 77.5,109 0,4 -1.5,8 -2.1,12 -0.7,5.8 -1,11.5 -2.9,17.2 -1.2,3.6 -3.8,7.1 -5.4,10.7 -2.9,6 -5.2,12.1 -9.3,17.9 -1.7,2.4 -4.3,4.5 -6.2,6.8 -6.3,7.8 -13.6,15.4 -22.1,22.8 -9,7.4 -18.8,14.7 -30.4,21.4 -11.8,6.8 -24.5,12.6 -37.7,17.8 -4,1.6 -8.1,3 -12.1,4.4 -9.9,3.5 -20.1,6.7 -30.6,9.3 -4.3,1.2 -8.6,2.4 -13,3.3 -6.4,1.2 -12.7,2.2 -19.1,3.3 -7.9,1.4 -15.6,3 -23.5,4 -1,0.2 -2,0.3 -3,0.4 -12.4,1.3 -24.9,1.7 -37.4,2.1 -2.2,0 -4.4,0.1 -6.5,0.3 -4.8,0.1 -9.6,-0.1 -14.3,-0.2 -11,-0.2 -22,-0.8 -32.9,-1.8 -4.7,-0.4 -9.3,-0.8 -14,-1.4 -0.4,0 -0.8,0 -1.3,-0.1 -6.1,-0.8 -12.1,-1.8 -18,-2.8 -5.8,-1 -11.5,-2 -17.2,-3.2 -5.6,-1.2 -11.1,-2.7 -16.6,-4.2 -2.2,-0.7 -4.3,-1.4 -6.6,-2 -6.5,-1.8 -12.7,-3.9 -19.1,-5.8 -5.6,-2 -11.3,-3.8 -16.7,-6 -10.3,-4.3 -20.2,-8.9 -29.6,-14 -0.3,-0.2 -0.6,-0.3 -0.8,-0.4 -0.7,-0.3 -1.3,-0.6 -1.9,-0.9 -1.4,-0.7 -3,-1.3 -4.3,-2 0,-0.1 0,-0.1 -0.1,-0.1 -12.9,-7.5 -24.1,-15.5 -33.8,-24 -3.4,-3.1 -5.6,-6.4 -8.6,-9.6 -1.1,-1.1 -2,-2.3 -3.1,-3.4 -4.4,-4.5 -9.1,-9 -12.4,-13.7 -1.2,-1.8 -2,-3.7 -2.9,-5.6 -0.9,-2 -2,-4 -3,-5.9 -0.8,-1.5 -1.4,-3.1 -2.3,-4.6 -2.3,-4 -4.9,-8.1 -6.2,-12.3 -1.4,-4.1 -1.3,-8.2 -2.1,-12.3 -1.1,-5.7 -2.7,-11.3 -2.7,-17 0,-0.1 -0.1,-0.3 -0.1,-0.4 0.3,-39.4 26.6,-78.9 78.8,-109"
       style="fill:#ffffff;fill-opacity:1;fill-rule:nonzero;stroke:none"
       id="path567" /><path
       d="m 19008.8,11818.5 c 104.5,-60.3 272.7,-60.3 376,-0.2 74.7,43.4 94.5,106 61.2,160.1 -1.4,2.2 -1.9,4.5 -3.5,6.7 -3.5,5 -8.6,9.6 -13.1,14.4 -3.9,4.2 -6.8,8.5 -11.4,12.5 -9.8,8.6 -21.3,16.7 -34.4,24.3 -14.4,8.3 -30.3,15.2 -46.9,21.2 -3.4,1.1 -6.9,2.1 -10.3,3.2 -0.7,0.2 -1.4,0.4 -2.2,0.7 -13.3,4.2 -27,8 -41.3,10.8 -3.9,0.8 -7.9,1.4 -11.9,2.1 -15.7,2.6 -31.6,4.5 -47.7,5.5 -2.4,0 -4.8,0.3 -7.1,0.3 -18.9,0.8 -37.8,0.7 -56.6,-0.8 -5,-0.3 -9.9,-0.3 -14.8,-0.9 -1.8,-0.1 -3.5,-0.6 -5.2,-0.9 -0.8,-0.1 -1.5,-0.2 -2.2,-0.3 -6.9,-1.1 -13.7,-2.3 -20.6,-3.6 -5,-0.9 -10,-1.7 -15,-2.5 -6.1,-1.3 -11.9,-3.1 -17.8,-4.7 -4.6,-1.4 -9.3,-2.7 -13.9,-4.2 -3.9,-1.2 -7.8,-2.4 -11.7,-3.6 -4.7,-1.7 -9.5,-3.3 -14,-5.1 -9.8,-4.1 -19.2,-8.6 -28.3,-13.4 -2.3,-1.2 -4.9,-2.2 -7.3,-3.5 -0.3,-0.2 -0.7,-0.3 -1,-0.5 -0.1,0 -0.1,0 -0.1,-0.1 -12.9,-7.4 -24.2,-15.5 -33.9,-24.1 -1.7,-1.5 -2.7,-3.2 -4.3,-4.7 -0.6,-0.5 -0.9,-1.1 -1.5,-1.6 -0.6,-0.8 -1.2,-1.5 -1.9,-2.2 -5.9,-5.9 -12,-11.8 -16.3,-18.1 -2.2,-3 -3.3,-6.2 -4.9,-9.3 -3.6,-6.3 -7.4,-12.6 -9.6,-19.1 -1.1,-3.5 -1,-7.1 -1.8,-10.6 -1.3,-6.2 -3,-12.5 -3,-18.7 v 0 c 0,-0.1 -0.1,-0.2 -0.1,-0.3 0.3,-39.4 26.4,-78.8 78.4,-108.8"
       style="fill:#ffffff;fill-opacity:1;fill-rule:nonzero;stroke:none"
       id="path569" /><path
       d="m 20507.7,11806 c -0.2,-8.2 -0.7,-16.5 -1.2,-24.8 -0.5,-5.6 -0.8,-11.3 -1.3,-17 -1,-8.6 -2.3,-17.2 -3.6,-25.8 -0.8,-5.3 -1.6,-10.7 -2.6,-16.1 -1.8,-9.3 -4,-18.5 -6.3,-27.9 -1.2,-4.6 -2.1,-9.3 -3.4,-14 -3.1,-11.3 -6.8,-22.5 -10.6,-33.7 -1,-2.8 -1.6,-5.5 -2.6,-8.3 -5.2,-14.1 -10.9,-28.2 -17.2,-42.3 -0.9,-2 -2,-4.1 -2.9,-6.1 -5.6,-11.9 -11.4,-23.7 -17.7,-35.6 -2.4,-4.6 -5.3,-9.1 -7.9,-13.8 -5.2,-9.2 -10.5,-18.4 -16.2,-27.5 -3.4,-5.4 -7,-10.7 -10.5,-16 -5.6,-8.4 -11.2,-16.8 -17.2,-25.2 -4,-5.5 -8.3,-11.1 -12.6,-16.7 -6,-8 -12.1,-16 -18.6,-23.9 -4.7,-5.7 -9.6,-11.4 -14.4,-17.1 -6.6,-7.7 -13.4,-15.4 -20.4,-23.1 -5.3,-5.7 -10.7,-11.4 -16.1,-17.1 -7.2,-7.6 -14.7,-15.1 -22.3,-22.5 -5.8,-5.7 -11.6,-11.4 -17.6,-17 -7.9,-7.4 -16.2,-14.8 -24.5,-22.2 -6.2,-5.4 -12.4,-10.9 -18.8,-16.4 -8.8,-7.4 -17.9,-14.8 -27.1,-22.1 -6.5,-5.3 -12.9,-10.5 -19.7,-15.7 -9.8,-7.6 -20.2,-15 -30.4,-22.5 -6.6,-4.8 -13,-9.6 -19.8,-14.3 -11.6,-8.1 -23.7,-16.1 -35.7,-24 -6.1,-4 -11.9,-8 -18.1,-11.9 -18.4,-11.8 -37.4,-23.4 -57,-34.8 L 9502.13,5042.1 C 8901.43,4693 7991.48,4655.2 7468.04,4957.4 l -0.95,-325.1 C 7990.6,4330 8900.54,4367.8 9501.18,4717 l 10511.32,6108.4 c 326.4,189.8 493.9,432.3 494.5,662.7 0.3,108.3 0.7,216.7 1,325.1 0,-2.4 -0.3,-4.8 -0.3,-7.2"
       style="fill:#1b2e37;fill-opacity:1;fill-rule:nonzero;stroke:none"
       id="path571" /><path
       d="m 13157.6,14365.9 5841.6,-3372.7 140.3,81.6 -5981.9,3453.6 -9509.78,-5526.5 140.31,-81 9369.47,5445"
       style="fill:#203843;fill-opacity:1;fill-rule:nonzero;stroke:none"
       id="path573" /><path
       d="m 3788.13,8920.9 5841.64,-3372.6 9369.43,5444.9 -5841.6,3372.7 -9369.47,-5445"
       style="fill:#d4e0e5;fill-opacity:1;fill-rule:nonzero;stroke:none"
       id="path575" /><path
       d="m 13157.6,14528.4 5981.9,-3453.6 -140.3,-81.6 -9369.43,-5444.9 -5841.64,3372.6 -140.31,81 z m 5139.6,-2235.1 c 0,5.7 1.6,11.3 2.7,17 0,-0.1 0,-0.2 0,-0.3 0.8,4.3 0.7,8.5 2.1,12.6 0,0 0,0 0,0 1.3,4.2 3.9,8.3 6.2,12.3 0.9,1.5 1.5,3.1 2.3,4.6 1,1.9 2.1,3.9 3,5.9 0.9,1.9 1.7,3.8 2.9,5.6 v 0 c 3.3,4.7 8,9.2 12.4,13.7 1.1,1.1 2,2.3 3.1,3.4 3,3.2 5.2,6.5 8.6,9.6 9.7,8.5 20.9,16.5 33.8,24 0.1,0 0.1,0 0.1,0.1 1.3,0.7 2.9,1.3 4.3,2 0.6,0.3 1.2,0.6 1.9,0.9 9.7,5.3 19.9,10.1 30.4,14.4 5.4,2.2 11.1,4 16.7,6 8.4,2.9 16.9,5.5 25.7,7.8 5.5,1.5 11,3 16.6,4.2 5.7,1.2 11.4,2.2 17.2,3.2 5.9,1 11.9,2 18,2.8 2.1,0.3 4.2,0.8 6.3,1 -1.7,-0.2 -3.3,-0.7 -5,-0.9 4.7,0.6 9.3,1 14,1.4 10.9,1 21.9,1.6 32.9,1.8 4.7,0.1 9.5,0.3 14.3,0.2 2.1,-0.2 4.3,-0.3 6.5,-0.3 12.5,-0.4 25,-0.8 37.4,-2.1 1,-0.1 2,-0.2 3,-0.4 7.9,-1 15.6,-2.6 23.5,-4 6.4,-1.1 12.7,-2.1 19.1,-3.3 4.4,-0.9 8.7,-2.1 13,-3.3 10.5,-2.6 20.7,-5.8 30.6,-9.3 4,-1.4 8.1,-2.8 12.1,-4.4 13.2,-5.2 25.9,-11 37.7,-17.8 11.6,-6.7 21.4,-14 30.4,-21.4 8.5,-7.4 15.8,-15 22.1,-22.8 -0.7,0.9 -1.7,1.8 -2.5,2.8 2.7,-3.3 6.4,-6.3 8.7,-9.6 4.1,-5.8 6.4,-11.9 9.3,-17.9 -0.2,0.3 -0.5,0.7 -0.6,1.1 1.9,-3.9 4.6,-7.8 6,-11.8 1.9,-5.7 2.2,-11.4 2.9,-17.2 0.6,-4 2.1,-8 2.1,-12 0.2,-39.4 -25.6,-78.9 -77.5,-109 -103.3,-60.1 -271.5,-60.1 -375.6,0 -52.2,30.1 -78.5,69.6 -78.8,109 0,0.1 0.1,0.3 0.1,0.4 z m 633.3,-365.7 v 0 c 0,6.2 1.7,12.5 3,18.7 0,-0.1 0,-0.2 0,-0.3 0.7,3.7 0.6,7.3 1.8,10.9 v 0 c 2.2,6.5 6,12.8 9.6,19.1 1.6,3.1 2.7,6.3 4.9,9.3 4.3,6.3 10.4,12.2 16.3,18.1 0.7,0.7 1.3,1.4 1.9,2.2 1.9,2.1 3.5,4.4 5.8,6.4 v -0.1 c 9.7,8.6 21,16.7 33.9,24.1 0,0.1 0,0.1 0.1,0.1 0.3,0.2 0.7,0.3 1,0.5 2.4,1.3 5,2.3 7.3,3.5 9.1,4.8 18.5,9.3 28.3,13.4 4.5,1.8 9.3,3.4 14,5.1 3.9,1.2 7.8,2.4 11.7,3.6 4.6,1.5 9.3,2.8 13.9,4.2 5.9,1.6 11.7,3.4 17.8,4.7 5,0.8 10,1.6 15,2.5 6.9,1.3 13.7,2.5 20.6,3.6 2.5,0.4 4.9,1 7.4,1.3 v -0.1 c 4.9,0.6 9.8,0.6 14.8,0.9 18.8,1.5 37.7,1.6 56.6,0.8 2.4,-0.1 4.7,-0.2 7.1,-0.3 16.1,-1 32,-2.9 47.7,-5.5 4,-0.7 7.9,-1.3 11.9,-2.1 14.3,-2.8 28,-6.6 41.3,-10.8 4.2,-1.4 8.4,-2.4 12.5,-3.9 16.6,-6 32.5,-12.9 46.9,-21.2 13.1,-7.6 24.6,-15.7 34.4,-24.3 4.6,-4 7.5,-8.3 11.4,-12.5 -0.7,0.7 -1.3,1.5 -2,2.2 5.3,-5.5 11.1,-10.9 15.1,-16.6 1.6,-2.2 2.1,-4.5 3.5,-6.7 33.3,-54.1 13.5,-116.7 -61.2,-160.1 -103.3,-60.1 -271.5,-60.1 -376,0.2 -52,30 -78.1,69.4 -78.4,108.8 0,0.1 0.1,0.2 0.1,0.3 z M 7216.93,6136.2 c -10.51,-9.2 -22.76,-18 -36.73,-26.2 -14.03,-8.1 -29.11,-15.2 -45.01,-21.3 -111.48,-42.8 -263.2,-35.6 -361.85,21.3 L 4667.46,7325.9 c -56.42,32.5 -84.89,75.2 -85.2,117.9 0,0.1 0.04,0.1 0.04,0.3 0,0.1 0.06,0.2 0.06,0.4 v 0 c 0,4.9 1.57,9.8 2.36,14.8 0,0 -0.05,-0.1 -0.05,-0.2 0.88,5.7 0.99,11.4 2.87,17 v 0 c 1.93,5.9 5.65,11.6 8.74,17.4 -0.11,-0.2 -0.11,-0.2 -0.21,-0.4 2.41,4.6 3.93,9.3 7.02,13.8 4.61,6.5 11.09,12.7 17.26,19 -0.1,0 -0.1,-0.1 -0.2,-0.1 3.19,3.2 5.34,6.6 8.89,9.8 10.47,9.3 22.72,18 36.74,26.2 111.99,65.1 294.7,65.1 407.48,0 l 2106,-1215.9 c 12.24,-7.1 22.56,-14.8 32.13,-22.7 -9.57,7.9 -19.89,15.6 -32.13,22.7 14.12,-8.1 26.52,-16.9 37.1,-26.3 0,0 -0.05,0.1 -0.11,0.1 4.08,-3.6 6.7,-7.5 10.25,-11.2 2.84,-2.9 5.24,-5.9 8.01,-8.8 2.68,-3.1 6.13,-6 8.33,-9.2 0,0 0,0 -0.05,0 2.25,-3.1 3.14,-6.4 4.96,-9.6 -0.41,0.7 -0.62,1.4 -1.09,2.2 4.66,-7.7 9.26,-15.4 11.88,-23.4 0.05,-0.1 0.1,-0.1 0.1,-0.2 1.26,-3.7 1.15,-7.5 1.95,-11.3 -0.06,0.2 -0.06,0.2 -0.06,0.4 1.46,-6.9 3.45,-13.7 3.45,-20.6 0.1,-32 -15.59,-64.1 -47.05,-91.8 z m 251.11,-1178.8 c 523.44,-302.2 1433.39,-264.4 2034.09,84.7 l 10511.27,6108.5 c 19.6,11.4 38.6,23 57,34.8 6.2,3.9 12,7.9 18.1,11.9 12,7.9 24.1,15.9 35.7,24 6.8,4.7 13.2,9.5 19.8,14.3 10.2,7.5 20.6,14.9 30.4,22.5 6.8,5.2 13.2,10.4 19.7,15.7 9.2,7.3 18.3,14.7 27.1,22.1 6.4,5.5 12.6,11 18.8,16.4 8.3,7.4 16.6,14.8 24.5,22.2 6,5.6 11.8,11.3 17.6,17 7.6,7.4 15.1,14.9 22.3,22.5 5.4,5.7 10.8,11.4 16.1,17.1 7,7.7 13.8,15.4 20.4,23.1 4.8,5.7 9.7,11.4 14.4,17.1 6.5,7.9 12.6,15.9 18.6,23.9 4.3,5.6 8.6,11.2 12.6,16.7 6,8.4 11.6,16.8 17.2,25.2 3.5,5.3 7.1,10.6 10.5,16 5.7,9.1 11,18.3 16.2,27.5 2.6,4.7 5.5,9.2 7.9,13.8 6.3,11.9 12.1,23.7 17.7,35.6 0.9,2 2,4.1 2.9,6.1 6.3,14.1 12,28.2 17.2,42.3 1,2.8 1.6,5.5 2.6,8.3 3.8,11.2 7.5,22.4 10.6,33.7 1.3,4.7 2.2,9.4 3.4,14 2.3,9.4 4.5,18.6 6.3,27.9 1,5.4 1.8,10.8 2.6,16.1 1.3,8.6 2.6,17.2 3.6,25.8 0.5,5.7 0.8,11.4 1.3,17 0.5,8.3 1,16.6 1.2,24.8 3.4,195.8 -113.1,383.5 -354.8,523 l -4833.2,2790.5 c -523.4,302.2 -1433.7,264.2 -2034,-84.7 L 2774.41,8926.3 c -329.39,-191.4 -496.5,-436.3 -494.29,-668.4 0,1.9 -0.43,3.9 -0.43,5.8 -0.31,-108.4 -0.63,-216.7 -0.94,-325.1 -0.53,-193.3 116.34,-378 355.2,-515.9 l 0.88,325.2 4833.21,-2790.5"
       style="fill:#325969;fill-opacity:1;fill-rule:nonzero;stroke:none"
       id="path577" /><path
       d="m 7258.64,6259.5 c 0,0.1 -0.05,0.1 -0.1,0.2 -2.41,7.2 -6.7,14.1 -10.79,21.2 -1.82,3.2 -2.71,6.5 -4.96,9.6 -2.2,3.2 -5.39,6.2 -8.28,9.2 -2.77,2.9 -5.17,5.9 -8.01,8.8 -3.55,3.7 -6.17,7.6 -10.25,11.2 -1.36,1.3 -3.4,2.2 -4.86,3.5 -9.57,7.9 -19.89,15.6 -32.13,22.7 l -2106,1215.9 c -112.78,65.1 -295.49,65.1 -407.48,0 -14.02,-8.2 -26.27,-16.9 -36.74,-26.2 -3.5,-3.1 -5.6,-6.5 -8.69,-9.7 -6.17,-6.3 -12.65,-12.5 -17.26,-19 -3.04,-4.4 -4.46,-9 -6.81,-13.4 -3.09,-5.8 -6.81,-11.5 -8.74,-17.4 -1.88,-5.6 -1.99,-11.2 -2.82,-16.8 -0.79,-5 -2.36,-9.9 -2.36,-14.8 v 0 c 0,-0.2 -0.06,-0.3 -0.06,-0.4 0,-0.2 -0.04,-0.2 -0.04,-0.3 0.31,-42.7 28.78,-85.4 85.2,-117.9 L 6773.34,6110 c 98.65,-56.9 250.37,-64.1 361.85,-21.3 15.9,6.1 30.98,13.2 45.01,21.3 13.97,8.2 26.22,17 36.73,26.2 31.46,27.7 47.15,59.8 47.05,91.8 0,6.8 -1.99,13.5 -3.39,20.2 -0.8,3.8 -0.69,7.6 -1.95,11.3"
       style="fill:#ffffff;fill-opacity:1;fill-rule:nonzero;stroke:none"
       id="path579" /><path
       d="m 2634.83,7747.9 -0.88,-325.2 4833.14,-2790.4 0.95,325.1 -4833.21,2790.5"
       style="fill:#1b2e37;fill-opacity:1;fill-rule:nonzero;stroke:none"
       id="path581" /></g><path
     style="fill:none;stroke:#00ff00;stroke-width:5;stroke-dasharray:none;marker-end:url(#marker1808);stroke-opacity:1"
     d="M 355.69562,232.12321 632.04064,73.681917"
     id="path651" /><text
     xml:space="preserve"
     style="font-size:31.75px;font-family:'Arial Rounded MT';-inkscape-font-specification:'Arial Rounded MT';fill:#000000;fill-opacity:1;stroke:#000000;stroke-width:2;stroke-dasharray:none;stroke-opacity:1"
     x="411.76144"
     y="367.09293"
     id="text1265"
     transform="rotate(-31.348821)"><tspan
       sodipodi:role="line"
       id="tspan1263"
       style="font-style:normal;font-variant:normal;font-weight:normal;font-stretch:normal;font-size:31.75px;font-family:Roboto;-inkscape-font-specification:Roboto;fill:#000000;fill-opacity:1;stroke:#000000;stroke-width:2;stroke-opacity:1"
       x="411.76144"
       y="367.09293">y-axis</tspan></text><path
     style="fill:none;fill-opacity:1;stroke:#ff0000;stroke-width:5.785;stroke-dasharray:none;stroke-opacity:1;marker-end:url(#Arrow2)"
     d="M 355.77009,231.89574 571.70192,355.9343"
     id="path2781" /><text
     xml:space="preserve"
     style="font-size:31.75px;font-family:'Arial Rounded MT';-inkscape-font-specification:'Arial Rounded MT';fill:#000000;fill-opacity:1;stroke:#000000;stroke-width:2;stroke-dasharray:none;stroke-opacity:1"
     x="572.80853"
     y="39.586735"
     id="text2929"
     transform="rotate(31.447044)"><tspan
       sodipodi:role="line"
       style="font-style:normal;font-variant:normal;font-weight:normal;font-stretch:normal;font-size:31.75px;font-family:Roboto;-inkscape-font-specification:Roboto;fill:#000000;fill-opacity:1;stroke:#000000;stroke-width:2;stroke-opacity:1"
       x="572.80853"
       y="39.586735"
       id="tspan2943">x-axis</tspan></text><path
     style="fill:none;fill-opacity:1;stroke:#0000ff;stroke-width:5;stroke-dasharray:none;stroke-opacity:1;marker-end:url(#Arrow2)"
     d="M 356.70876,234.38263 V 33.616665"
     id="path4471" /><text
     xml:space="preserve"
     style="font-size:31.75px;font-family:'Arial Rounded MT';-inkscape-font-specification:'Arial Rounded MT';fill:#000000;fill-opacity:1;stroke:#000000;stroke-width:2;stroke-dasharray:none;stroke-opacity:1"
     x="260.39346"
     y="67.592094"
     id="text7581"
     transform="rotate(0.37575191)"
     inkscape:export-filename="phoneAxes.svg"
     inkscape:export-xdpi="96"
     inkscape:export-ydpi="96"><tspan
       sodipodi:role="line"
       id="tspan7579"
       style="font-style:normal;font-variant:normal;font-weight:normal;font-stretch:normal;font-size:31.75px;font-family:Roboto;-inkscape-font-specification:Roboto;fill:#000000;fill-opacity:1;stroke:#000000;stroke-width:2;stroke-opacity:1"
       x="260.39346"
       y="67.592094">z-axis</tspan></text></svg>
